<svg xmlns="http://www.w3.org/2000/svg" xmlns:xlink="http://www.w3.org/1999/xlink" preserveAspectRatio="xMidYMid" width="28" height="29" viewBox="0 0 28 29">
  <path d="M14.018,12.295 C14.018,12.295 7.790,18.858 7.790,18.858 C7.790,18.858 2.082,18.533 2.082,18.533 C2.082,18.533 0.004,21.026 0.004,21.026 C0.004,21.026 5.642,22.523 5.642,22.523 C5.642,22.523 5.891,22.192 4.653,23.567 C3.484,24.863 4.462,25.169 5.440,24.315 C6.417,23.460 6.430,23.271 6.430,23.271 C6.430,23.271 8.859,28.605 8.859,28.605 C8.859,28.605 10.825,25.481 10.825,25.481 C10.825,25.481 9.535,21.228 9.535,21.228 C9.535,21.228 16.119,14.290 16.119,14.290 C16.119,14.290 22.182,27.688 22.182,27.688 C22.182,27.688 24.048,26.073 24.048,26.073 C24.048,26.073 21.727,8.207 21.727,8.207 C21.727,8.207 26.446,2.883 26.986,1.614 C27.526,0.343 27.356,-0.530 25.672,0.366 C23.989,1.263 19.185,6.150 19.185,6.150 C19.185,6.150 2.866,5.631 2.866,5.631 C2.866,5.631 0.024,7.924 0.024,7.924 C0.024,7.924 14.018,12.295 14.018,12.295 Z" id="path-1" fill-rule="evenodd"/>
</svg>
