<?xml version="1.0" encoding="utf-8"?>
<!-- Generator: Adobe Illustrator 19.0.0, SVG Export Plug-In . SVG Version: 6.00 Build 0)  -->
<svg version="1.1" id="Слой_1" xmlns="http://www.w3.org/2000/svg" xmlns:xlink="http://www.w3.org/1999/xlink" x="0px" y="0px"
	 viewBox="15.3 8.8 176 30" style="enable-background:new 15.3 8.8 176 30;" xml:space="preserve">
<style type="text/css">
	.st0{clip-path:url(#SVGID_2_);fill:#FFFFFF;}
	.st1{clip-path:url(#SVGID_4_);fill:#E11837;}
	.st2{clip-path:url(#SVGID_6_);fill:#E11837;}
	.st3{clip-path:url(#SVGID_8_);fill:#E11837;}
	.st4{clip-path:url(#SVGID_10_);fill:#E11837;}
	.st5{clip-path:url(#SVGID_12_);fill:#034EA2;}
	.st6{clip-path:url(#SVGID_14_);fill:#034EA2;}
	.st7{clip-path:url(#SVGID_16_);fill:#034EA2;}
	.st8{clip-path:url(#SVGID_18_);fill:#034EA2;}
	.st9{clip-path:url(#SVGID_20_);fill:#034EA2;}
	.st10{clip-path:url(#SVGID_22_);fill:#034EA2;}
	.st11{clip-path:url(#SVGID_24_);fill:#034EA2;}
	.st12{clip-path:url(#SVGID_26_);fill:#034EA2;}
	.st13{clip-path:url(#SVGID_28_);fill:#034EA2;}
	.st14{clip-path:url(#SVGID_30_);fill:#034EA2;}
	.st15{clip-path:url(#SVGID_32_);fill:#034EA2;}
	.st16{clip-path:url(#SVGID_34_);fill:#034EA2;}
	.st17{clip-path:url(#SVGID_36_);fill:#034EA2;}
	.st18{clip-path:url(#SVGID_38_);fill:#034EA2;}
	.st19{clip-path:url(#SVGID_40_);fill:#034EA2;}
	.st20{clip-path:url(#SVGID_42_);fill:#034EA2;}
	.st21{clip-path:url(#SVGID_44_);fill:#034EA2;}
	.st22{clip-path:url(#SVGID_46_);fill:#034EA2;}
	.st23{clip-path:url(#SVGID_48_);fill:#034EA2;}
	.st24{clip-path:url(#SVGID_50_);fill:#034EA2;}
	.st25{clip-path:url(#SVGID_52_);fill:#034EA2;}
	.st26{clip-path:url(#SVGID_54_);fill:#034EA2;}
	.st27{clip-path:url(#SVGID_56_);fill:#034EA2;}
	.st28{clip-path:url(#SVGID_58_);fill:#034EA2;}
	.st29{clip-path:url(#SVGID_60_);fill:#034EA2;}
	.st30{clip-path:url(#SVGID_62_);fill:#034EA2;}
	.st31{clip-path:url(#SVGID_64_);fill:#034EA2;}
	.st32{clip-path:url(#SVGID_66_);fill:#034EA2;}
	.st33{clip-path:url(#SVGID_68_);fill:#034EA2;}
	.st34{clip-path:url(#SVGID_70_);fill:#034EA2;}
	.st35{clip-path:url(#SVGID_72_);fill:#034EA2;}
	.st36{clip-path:url(#SVGID_74_);fill:#034EA2;}
</style>
<g>
	<g>
		<g>
			<defs>
				<rect id="SVGID_1_" x="0.6" width="204.9" height="45.9"/>
			</defs>
			<clipPath id="SVGID_2_">
				<use xlink:href="#SVGID_1_"  style="overflow:visible;"/>
			</clipPath>
			<polygon id="XMLID_47_" class="st0" points="0.6,0 205.4,0 205.4,46 0.6,46 			"/>
		</g>
		<g>
			<defs>
				<rect id="SVGID_3_" x="0.6" width="204.9" height="45.9"/>
			</defs>
			<clipPath id="SVGID_4_">
				<use xlink:href="#SVGID_3_"  style="overflow:visible;"/>
			</clipPath>
			<polygon id="XMLID_46_" class="st1" points="35.5,30.4 38.2,31.4 40.9,22.7 			"/>
		</g>
		<g>
			<defs>
				<rect id="SVGID_5_" x="0.6" width="204.9" height="45.9"/>
			</defs>
			<clipPath id="SVGID_6_">
				<use xlink:href="#SVGID_5_"  style="overflow:visible;"/>
			</clipPath>
			<polygon id="XMLID_45_" class="st2" points="31.4,29 31.7,29.1 44.5,11 44.9,9.8 			"/>
		</g>
		<g>
			<defs>
				<rect id="SVGID_7_" x="0.6" width="204.9" height="45.9"/>
			</defs>
			<clipPath id="SVGID_8_">
				<use xlink:href="#SVGID_7_"  style="overflow:visible;"/>
			</clipPath>
			<polygon id="XMLID_44_" class="st3" points="32.6,29.4 33.4,29.7 42.9,16.3 43.7,13.6 			"/>
		</g>
		<g>
			<defs>
				<rect id="SVGID_9_" x="0.6" width="204.9" height="45.9"/>
			</defs>
			<clipPath id="SVGID_10_">
				<use xlink:href="#SVGID_9_"  style="overflow:visible;"/>
			</clipPath>
			<polygon id="XMLID_43_" class="st4" points="34,29.9 35.1,30.3 41.3,21.5 42.3,18.1 			"/>
		</g>
		<g>
			<defs>
				<rect id="SVGID_11_" x="0.6" width="204.9" height="45.9"/>
			</defs>
			<clipPath id="SVGID_12_">
				<use xlink:href="#SVGID_11_"  style="overflow:visible;"/>
			</clipPath>
			<polygon id="XMLID_42_" class="st5" points="29.8,29 30.4,28.9 44.2,9.3 43.2,10.1 			"/>
		</g>
		<g>
			<defs>
				<rect id="SVGID_13_" x="0.6" width="204.9" height="45.9"/>
			</defs>
			<clipPath id="SVGID_14_">
				<use xlink:href="#SVGID_13_"  style="overflow:visible;"/>
			</clipPath>
			<polygon id="XMLID_41_" class="st6" points="27.4,29.4 28.7,29.2 40.9,11.8 38.6,13.6 			"/>
		</g>
		<g>
			<defs>
				<rect id="SVGID_15_" x="0.6" width="204.9" height="45.9"/>
			</defs>
			<clipPath id="SVGID_16_">
				<use xlink:href="#SVGID_15_"  style="overflow:visible;"/>
			</clipPath>
			<polygon id="XMLID_40_" class="st7" points="25.1,29.8 26.6,29.5 37.1,14.8 34.1,17 			"/>
		</g>
		<g>
			<defs>
				<rect id="SVGID_17_" x="0.6" width="204.9" height="45.9"/>
			</defs>
			<clipPath id="SVGID_18_">
				<use xlink:href="#SVGID_17_"  style="overflow:visible;"/>
			</clipPath>
			<polygon id="XMLID_39_" class="st8" points="15.3,31.4 24.6,29.9 33.1,17.8 			"/>
		</g>
		<g>
			<defs>
				<rect id="SVGID_19_" x="0.6" width="204.9" height="45.9"/>
			</defs>
			<clipPath id="SVGID_20_">
				<use xlink:href="#SVGID_19_"  style="overflow:visible;"/>
			</clipPath>
			<path id="XMLID_38_" class="st9" d="M173.8,18.3c0.5,0.8,0.6,2.7-0.1,4h-4.6c0.4-0.9,0.6-2-0.3-2h-2.2l-0.6,2h-6.6l1.9-6h9.7
				C172.5,16.4,173.5,17.5,173.8,18.3L173.8,18.3z"/>
		</g>
		<g>
			<defs>
				<rect id="SVGID_21_" x="0.6" width="204.9" height="45.9"/>
			</defs>
			<clipPath id="SVGID_22_">
				<use xlink:href="#SVGID_21_"  style="overflow:visible;"/>
			</clipPath>
			<path id="XMLID_37_" class="st10" d="M173.1,23.7c-0.9,1.1-2.1,2-4.2,2H165l-1.4,4.5H157l2-6.5H173.1L173.1,23.7z"/>
		</g>
		<g>
			<defs>
				<rect id="SVGID_23_" x="0.6" width="204.9" height="45.9"/>
			</defs>
			<clipPath id="SVGID_24_">
				<use xlink:href="#SVGID_23_"  style="overflow:visible;"/>
			</clipPath>
			<polygon id="XMLID_36_" class="st11" points="140,16.3 140.7,22.4 129.6,22.4 133.9,16.3 			"/>
		</g>
		<g>
			<defs>
				<rect id="SVGID_25_" x="0.6" width="204.9" height="45.9"/>
			</defs>
			<clipPath id="SVGID_26_">
				<use xlink:href="#SVGID_25_"  style="overflow:visible;"/>
			</clipPath>
			<polygon id="XMLID_35_" class="st12" points="140.8,23.7 141.5,30.2 135.9,30.2 135.6,27.9 131,27.9 129.3,30.2 124.1,30.2 
				128.7,23.7 134,23.7 133.2,24.7 135.3,24.7 135.2,23.7 			"/>
		</g>
		<g>
			<defs>
				<rect id="SVGID_27_" x="0.6" width="204.9" height="45.9"/>
			</defs>
			<clipPath id="SVGID_28_">
				<use xlink:href="#SVGID_27_"  style="overflow:visible;"/>
			</clipPath>
			<path class="st13" d="M48.3,16.3h13.4l-1.3,4.1H57l-0.6,1.9h-6.6l0.6-1.9H47L48.3,16.3L48.3,16.3z M56.1,23.7l-2,6.5h-6.6l2-6.5
				H56.1L56.1,23.7z"/>
		</g>
		<g>
			<defs>
				<rect id="SVGID_29_" x="0.6" width="204.9" height="45.9"/>
			</defs>
			<clipPath id="SVGID_30_">
				<use xlink:href="#SVGID_29_"  style="overflow:visible;"/>
			</clipPath>
			<path id="XMLID_32_" class="st14" d="M157.5,22.4h-11.8l0.2-0.7h4.5c-0.3-0.6-3.2-1.2-5-0.6l1.5-4.8
				C151.8,14.8,160,14.9,157.5,22.4L157.5,22.4z"/>
		</g>
		<g>
			<defs>
				<rect id="SVGID_31_" x="0.6" width="204.9" height="45.9"/>
			</defs>
			<clipPath id="SVGID_32_">
				<use xlink:href="#SVGID_31_"  style="overflow:visible;"/>
			</clipPath>
			<path id="XMLID_31_" class="st15" d="M157,23.7c-2.6,7.6-9.6,8-14.2,5.8l1.5-4.6c1.4,0.6,5.2,0.6,5.4-0.5h-4.6l0.2-0.7L157,23.7
				L157,23.7z"/>
		</g>
		<g>
			<defs>
				<rect id="SVGID_33_" x="0.6" width="204.9" height="45.9"/>
			</defs>
			<clipPath id="SVGID_34_">
				<use xlink:href="#SVGID_33_"  style="overflow:visible;"/>
			</clipPath>
			<path id="XMLID_30_" class="st16" d="M127.1,16.5l-1.4,4.5c-2.3-0.5-5.9-0.3-7.1,1.3h-6.2c0.6-1.7,2.1-3.6,3.6-4.7
				C118.4,15.6,124.2,14.9,127.1,16.5L127.1,16.5z"/>
		</g>
		<g>
			<defs>
				<rect id="SVGID_35_" x="0.6" width="204.9" height="45.9"/>
			</defs>
			<clipPath id="SVGID_36_">
				<use xlink:href="#SVGID_35_"  style="overflow:visible;"/>
			</clipPath>
			<path id="XMLID_29_" class="st17" d="M118,23.7c-0.1,0.7,0.3,1.2,0.9,1.4c1.1,0.4,4.6,0.3,5.5-0.2l-1.5,4.6
				c-1.9,0.7-7,2.5-9.8-0.5c-1.2-1.4-1.9-3.1-1.3-5.3H118L118,23.7z"/>
		</g>
		<g>
			<defs>
				<rect id="SVGID_37_" x="0.6" width="204.9" height="45.9"/>
			</defs>
			<clipPath id="SVGID_38_">
				<use xlink:href="#SVGID_37_"  style="overflow:visible;"/>
			</clipPath>
			<polygon id="XMLID_28_" class="st18" points="112.5,16.3 110.6,22.4 94.7,22.4 96.6,16.3 103.2,16.3 101.6,21.6 104.2,21.6 
				105.9,16.3 			"/>
		</g>
		<g>
			<defs>
				<rect id="SVGID_39_" x="0.6" width="204.9" height="45.9"/>
			</defs>
			<clipPath id="SVGID_40_">
				<use xlink:href="#SVGID_39_"  style="overflow:visible;"/>
			</clipPath>
			<polygon id="XMLID_27_" class="st19" points="110.2,23.7 108.2,30.2 101.6,30.2 103.4,24.4 100.7,24.4 98.9,30.2 92.3,30.2 
				94.3,23.7 			"/>
		</g>
		<g>
			<defs>
				<rect id="SVGID_41_" x="0.6" width="204.9" height="45.9"/>
			</defs>
			<clipPath id="SVGID_42_">
				<use xlink:href="#SVGID_41_"  style="overflow:visible;"/>
			</clipPath>
			<polygon id="XMLID_26_" class="st20" points="89.9,16.3 90.6,22.4 79.6,22.4 83.8,16.3 			"/>
		</g>
		<g>
			<defs>
				<rect id="SVGID_43_" x="0.6" width="204.9" height="45.9"/>
			</defs>
			<clipPath id="SVGID_44_">
				<use xlink:href="#SVGID_43_"  style="overflow:visible;"/>
			</clipPath>
			<polygon id="XMLID_25_" class="st21" points="90.8,23.7 91.5,30.2 85.8,30.2 85.6,27.9 80.9,27.9 79.3,30.2 74,30.2 78.6,23.7 
				83.9,23.7 83.2,24.7 85.2,24.7 85.1,23.7 			"/>
		</g>
		<g>
			<defs>
				<rect id="SVGID_45_" x="0.6" width="204.9" height="45.9"/>
			</defs>
			<clipPath id="SVGID_46_">
				<use xlink:href="#SVGID_45_"  style="overflow:visible;"/>
			</clipPath>
			<path id="XMLID_24_" class="st22" d="M76.5,18.3c0.5,0.8,0.6,2.7-0.1,4h-4.6c0.4-0.9,0.6-2-0.3-2h-2.2l-0.6,2h-6.6l1.9-6h9.7
				C75.1,16.4,76.2,17.5,76.5,18.3L76.5,18.3z"/>
		</g>
		<g>
			<defs>
				<rect id="SVGID_47_" x="0.6" width="204.9" height="45.9"/>
			</defs>
			<clipPath id="SVGID_48_">
				<use xlink:href="#SVGID_47_"  style="overflow:visible;"/>
			</clipPath>
			<path id="XMLID_23_" class="st23" d="M75.8,23.7c-0.9,1.1-2.1,2-4.2,2h-3.9l-1.4,4.5h-6.6l2-6.5H75.8L75.8,23.7z"/>
		</g>
		<g>
			<defs>
				<rect id="SVGID_49_" x="0.6" width="204.9" height="45.9"/>
			</defs>
			<clipPath id="SVGID_50_">
				<use xlink:href="#SVGID_49_"  style="overflow:visible;"/>
			</clipPath>
			<path class="st24" d="M180.6,30.8c-4.2,0-6.7-3.2-5.7-7.2h5.5c-0.1,1.1,0.6,1.9,1.9,1.9c1.2,0,2.5-0.8,3.1-1.9h5.5
				C189.3,27.7,184.8,30.8,180.6,30.8L180.6,30.8z M175.3,22.4c1.6-3.8,6-6.8,10.1-6.8s6.5,3,5.8,6.8h-5.6c-0.1-0.9-0.8-1.6-1.9-1.6
				c-1.1,0-2.2,0.7-2.9,1.6H175.3L175.3,22.4z"/>
		</g>
		<g>
			<defs>
				<rect id="SVGID_51_" x="0.6" width="204.9" height="45.9"/>
			</defs>
			<clipPath id="SVGID_52_">
				<use xlink:href="#SVGID_51_"  style="overflow:visible;"/>
			</clipPath>
			<path class="st25" d="M125.1,35.9c0.7,0.1,1.2,0.6,0.9,1.3c-0.3,0.8-1.2,1.2-2,1.2h-0.6c-0.5,0-1-0.1-1.5-0.1c-0.1,0-0.3,0-0.4,0
				s-0.1,0-0.1-0.1s0.4-0.1,0.5-0.1s0.1,0,0.1-0.1c0.1-0.1,0.2-0.2,0.2-0.3l1.1-3.5c0.1-0.2,0-0.4-0.2-0.4c-0.1,0-0.1,0-0.2,0
				s-0.2,0-0.2,0c0-0.1,0.2-0.1,0.5-0.2c0.3,0,0.7,0,1.1,0h0.6c0.5,0,1.2,0.1,1.4,0.6c0.2,0.4,0,0.7-0.2,1
				C126,35.6,125.5,35.9,125.1,35.9L125.1,35.9z M124,34.5l-0.4,1.2c-0.1,0.2-0.1,0.3,0.1,0.3h0.6c0.2,0,0.4-0.1,0.6-0.1
				c0.3-0.2,0.7-0.5,0.8-0.9c0.1-0.2,0.1-0.4,0-0.6c-0.1-0.4-0.7-0.5-1-0.5c-0.2,0-0.5,0-0.6,0.2C124.1,34.2,124.1,34.3,124,34.5
				L124,34.5z M123,37.8c-0.1,0.2-0.1,0.5,0.2,0.5c0.3,0.1,0.7,0.1,1.1,0c0.5-0.1,0.9-0.6,1.1-1.1s0-0.9-0.5-1.1
				c-0.2,0-0.4-0.1-0.7-0.1h-0.5c-0.1,0-0.3,0.1-0.3,0.3L123,37.8L123,37.8z"/>
		</g>
		<g>
			<defs>
				<rect id="SVGID_53_" x="0.6" width="204.9" height="45.9"/>
			</defs>
			<clipPath id="SVGID_54_">
				<use xlink:href="#SVGID_53_"  style="overflow:visible;"/>
			</clipPath>
			<path id="XMLID_17_" class="st26" d="M157.4,34.6c0.1-0.3,0.1-0.3-0.3-0.4c-0.1,0-0.2-0.1-0.1-0.2c0-0.1,0.1-0.1,0.2-0.1
				c0.1,0,0.2,0,0.4,0h4.2c0.1,0,0.2,0,0.2,0.1s-0.1,0.1-0.2,0.1c-0.1,0-0.3,0-0.5,0.1c-0.1,0.1-0.1,0.2-0.2,0.3l-1,3.3
				c-0.1,0.2-0.1,0.4,0.2,0.4c0.1,0,0.2,0,0.2,0c0.1,0,0.1,0,0.1,0.1s-0.1,0.1-0.2,0.1c-0.3,0-0.4-0.1-0.8-0.1
				c-0.3,0-0.5,0.1-0.8,0.1c-0.2,0-0.2,0-0.2-0.1s0.1-0.1,0.2-0.1c0.1,0,0.2,0,0.3,0c0.3,0,0.4-0.3,0.4-0.5l1.1-3.6h-2.5l-1.1,3.6
				c-0.1,0.2-0.1,0.4,0,0.4s0.3,0,0.4,0c0.1,0,0.1,0,0.1,0.1s-0.1,0.1-0.2,0.1c-0.3,0-0.5-0.1-0.8-0.1c-0.4,0-0.5,0-0.9,0.1
				c-0.1,0-0.2,0-0.2-0.1s0.1-0.1,0.2-0.1c0.1,0,0.2,0,0.3,0c0.2,0,0.3-0.2,0.4-0.4L157.4,34.6L157.4,34.6z"/>
		</g>
		<g>
			<defs>
				<rect id="SVGID_55_" x="0.6" width="204.9" height="45.9"/>
			</defs>
			<clipPath id="SVGID_56_">
				<use xlink:href="#SVGID_55_"  style="overflow:visible;"/>
			</clipPath>
			<path class="st27" d="M180.3,36.2c-0.2,0-0.3,0.2-0.4,0.3l-1.3,1.5c-0.2,0.2-0.3,0.3-0.6,0.3c-0.1,0-0.2,0-0.2,0.1s0,0.1,0.1,0.1
				h0.8c0.2,0,0.3-0.3,0.4-0.4l1.4-1.7c0.1-0.1,0.3-0.2,0.6-0.2h0.2c0.1,0,0.1,0.1,0.1,0.2l-0.5,1.5c0,0.1-0.1,0.2-0.2,0.3
				c-0.1,0.1-0.3,0-0.4,0c-0.1,0-0.2,0-0.2,0.1s0,0.1,0.1,0.1c0.3,0,0.5-0.1,0.8-0.1s0.5,0.1,0.8,0.1c0.1,0,0.2,0,0.2-0.1
				s0-0.1-0.1-0.1s-0.1,0-0.1,0c-0.3,0-0.3-0.2-0.3-0.4l1.1-3.5c0.1-0.4,0.2-0.4,0.5-0.4c0.1,0,0.2,0,0.2,0s0.1,0,0.1-0.1
				s0-0.1-0.1-0.1c-0.2,0-0.4,0-0.6,0h-1.1c-0.3,0-0.7,0-1.1,0.1c-0.4,0.2-0.9,0.6-1,1c-0.1,0.2,0,0.5,0.1,0.7
				C179.7,36,179.9,36.2,180.3,36.2L180.3,36.2z M181.9,34.5l-0.5,1.5c0,0.1-0.1,0.1-0.3,0.1c-0.3,0-0.6,0-0.8-0.1s-0.2-0.2-0.3-0.4
				c0-0.2,0-0.4,0-0.5c0.1-0.3,0.2-0.5,0.5-0.7s0.6-0.3,0.9-0.3c0.1,0,0.3,0,0.4,0C182,34.1,181.9,34.3,181.9,34.5L181.9,34.5z"/>
		</g>
		<g>
			<defs>
				<rect id="SVGID_57_" x="0.6" width="204.9" height="45.9"/>
			</defs>
			<clipPath id="SVGID_58_">
				<use xlink:href="#SVGID_57_"  style="overflow:visible;"/>
			</clipPath>
			<path id="XMLID_14_" class="st28" d="M168,34.4c0.1-0.2-0.1-0.3-0.3-0.3c-0.1,0-0.3,0-0.3-0.1s0.2-0.1,0.3-0.1h1.5
				c0.2,0,0.2,0,0.2,0.1s-0.2,0.1-0.2,0.1c-0.1,0-0.3,0-0.4,0.1c-0.1,0.1-0.2,0.2-0.2,0.3l-0.4,1.2c-0.1,0.2-0.1,0.3,0.1,0.3h2.2
				c0.2,0,0.2-0.1,0.2-0.3l0.4-1.2c0-0.1,0-0.2,0-0.2c-0.1,0-0.2-0.1-0.3-0.1s-0.2,0-0.2-0.1s0.1-0.1,0.3-0.1h1.5
				c0.1,0,0.2,0,0.1,0.1c0,0.1,0,0.1-0.1,0.1s-0.2,0-0.3,0c-0.2,0-0.3,0.1-0.4,0.3l-1.1,3.5c-0.1,0.3,0,0.3,0.2,0.4
				c0.1,0,0.1,0,0.2,0c0.1,0,0.1,0,0.1,0.1s-0.1,0.1-0.3,0.1c-0.3,0-0.5-0.1-0.8-0.1s-0.5,0.1-0.8,0.1c-0.1,0-0.2,0-0.2-0.1
				s0.1-0.1,0.2-0.1c0.1,0,0.2,0,0.3,0c0.2,0,0.3-0.2,0.4-0.4l0.5-1.6c0-0.1-0.1-0.2-0.2-0.2h-2.1c-0.2,0-0.3,0-0.3,0.2l-0.5,1.6
				c-0.1,0.2-0.1,0.3,0.1,0.4c0,0,0.1,0,0.2,0c0.1,0,0.3,0,0.2,0.1c0,0.1-0.1,0.1-0.2,0.1c-0.3,0-0.6-0.1-0.8-0.1
				c-0.3,0-0.5,0.1-0.8,0.1c-0.1,0-0.2,0-0.2-0.1s0.1-0.1,0.2-0.1c0.1,0,0.2,0,0.3,0s0.3-0.2,0.3-0.3L168,34.4L168,34.4z"/>
		</g>
		<g>
			<defs>
				<rect id="SVGID_59_" x="0.6" width="204.9" height="45.9"/>
			</defs>
			<clipPath id="SVGID_60_">
				<use xlink:href="#SVGID_59_"  style="overflow:visible;"/>
			</clipPath>
			<path id="XMLID_13_" class="st29" d="M128.4,34.5c0.1-0.2,0.1-0.3-0.2-0.4c-0.1,0-0.3,0-0.3-0.2c0,0,0.1-0.1,0.3-0.1
				c0.2,0,0.4,0,0.6,0c0.3,0,0.6,0,0.8,0s0.2,0,0.2,0.1s-0.2,0.1-0.3,0.1c-0.2,0-0.5,0.1-0.6,0.4l-1.1,3.4l3.9-3.7
				c-0.1-0.1-0.3-0.1-0.4-0.1c-0.1,0-0.2-0.1-0.2-0.1s0.1-0.1,0.3-0.1h1.6c0.1,0,0.2,0,0.2,0.1S133.1,34,133,34c-0.1,0-0.2,0-0.3,0
				c-0.2,0-0.4,0.1-0.4,0.3l-1.1,3.5c0,0.1,0,0.2,0,0.3c0.1,0.1,0.3,0.1,0.5,0.1c0.1,0,0.1,0,0.1,0.1s-0.1,0.1-0.3,0.1
				c-0.3,0-0.5-0.1-0.8-0.1s-0.6,0.1-0.8,0.1s-0.2,0-0.2-0.1s0.1-0.1,0.2-0.1c0.2,0,0.4,0,0.6-0.1c0,0,0.1-0.2,0.2-0.3
				c0-0.1,1.1-3.5,1.1-3.5l-3.9,3.7c-0.1,0.1-0.1,0.2,0.1,0.2c0,0,0.1,0,0.2,0c0.1,0,0.3-0.1,0.3,0.1c0,0.1-0.1,0.1-0.2,0.1
				c-0.3,0-0.6-0.1-0.8-0.1c-0.3,0-0.5,0.1-0.7,0.1c-0.1,0-0.2,0-0.2-0.1s0.1-0.1,0.2-0.1c0.3,0,0.4-0.1,0.5-0.4L128.4,34.5
				L128.4,34.5z"/>
		</g>
		<g>
			<defs>
				<rect id="SVGID_61_" x="0.6" width="204.9" height="45.9"/>
			</defs>
			<clipPath id="SVGID_62_">
				<use xlink:href="#SVGID_61_"  style="overflow:visible;"/>
			</clipPath>
			<path class="st30" d="M134.5,36.8c-0.1,0-0.1,0-0.1,0s-0.1,0.1-0.2,0.3l-0.5,0.7c0,0.1-0.1,0.1-0.1,0.2c0,0.1,0,0.2,0.2,0.3
				c0.1,0,0.2,0,0.4,0c0,0,0,0,0,0.1s-0.1,0.1-0.2,0.1c-0.2,0-0.4-0.1-0.6-0.1c-0.3,0-0.5,0.1-0.8,0.1c-0.1,0-0.2,0-0.1-0.1
				c0-0.1,0.2-0.1,0.3-0.1s0.2,0,0.3-0.1c0.1,0,0.2-0.2,0.4-0.4l2.8-4c0.1-0.1,0.1-0.2,0.1-0.2h0.1v0.1l0.4,4c0,0.2,0,0.3,0.1,0.3
				s0.2,0.1,0.3,0.1s0.2,0.1,0.1,0.1c0,0-0.1,0.1-0.2,0.1h-1.8c-0.1,0-0.1,0-0.1-0.1c0,0,0-0.1,0.1-0.1s0.4,0,0.5,0s0.1-0.1,0.1-0.2
				c0-0.1,0-0.2,0-0.3V37c0-0.1,0-0.1-0.1-0.2c0,0-0.1,0-0.2,0H134.5L134.5,36.8z M134.8,36.6h0.9c0.1,0,0.1,0,0.1,0
				c0.1,0,0.1,0,0.1-0.1c0,0,0-0.1,0-0.3l-0.1-1.1c0-0.2,0-0.3-0.1-0.3c0,0-0.1,0.1-0.2,0.2l-0.8,1.2c-0.1,0.1-0.1,0.2-0.1,0.2
				s0,0.1,0.1,0.1C134.7,36.6,134.8,36.6,134.8,36.6L134.8,36.6z"/>
		</g>
		<g>
			<defs>
				<rect id="SVGID_63_" x="0.6" width="204.9" height="45.9"/>
			</defs>
			<clipPath id="SVGID_64_">
				<use xlink:href="#SVGID_63_"  style="overflow:visible;"/>
			</clipPath>
			<path id="XMLID_10_" class="st31" d="M139.7,34.5L139.7,34.5c0-0.1,0-0.2,0-0.3c-0.1-0.1-0.3-0.1-0.4-0.1c-0.1,0-0.1-0.1-0.1-0.1
				s0.1-0.1,0.2-0.1h1.7c0.1,0,0.2,0,0.1,0.1c0,0,0,0.1-0.1,0.1c-0.2,0-0.3,0-0.5,0.1c-0.1,0-0.2,0.1-0.2,0.3l-0.5,1.6
				c0,0.1,0,0.1,0,0.1c0.1,0,0.1-0.1,0.2-0.1l1.9-1.5c0.2-0.2,0.3-0.3,0.3-0.3c0-0.1,0-0.1,0-0.1s-0.1,0-0.2,0c-0.1,0-0.2,0-0.2-0.1
				s0.1-0.1,0.2-0.1h1.5c0.1,0,0.1,0,0.1,0.1s-0.1,0.1-0.1,0.1c-0.2,0-0.3,0-0.5,0s-0.5,0.2-0.8,0.4l-1.3,1
				c-0.1,0.1-0.2,0.1-0.2,0.2c0,0,0,0.1,0.1,0.2l1.1,2.1c0.1,0.2,0.3,0.4,0.6,0.4c0,0,0.1,0,0.1,0.1s-0.1,0.1-0.2,0.1
				c-0.3,0-0.6-0.1-0.9-0.1c-0.3,0-0.6,0.1-0.9,0.1c-0.1,0-0.1,0-0.1-0.1c0,0,0-0.1,0.1-0.1c0.2,0,0.3,0,0.5-0.1s0.2-0.2,0.1-0.4
				l-0.7-1.5c-0.1-0.1-0.1-0.2-0.1-0.2s-0.1-0.1-0.1,0l-0.5,0.3l0,0v0.1l-0.4,1.4c0,0.1,0,0.2,0.1,0.3s0.3,0,0.4,0.1
				c0.1,0,0.1,0,0.1,0.1s-0.1,0.1-0.3,0.1c-0.3,0-0.5-0.1-0.8-0.1s-0.5,0.1-0.7,0.1c-0.1,0-0.2,0-0.2-0.1s0.2-0.1,0.3-0.1
				s0.3,0,0.4-0.1c0.1-0.1,0.1-0.2,0.2-0.3L139.7,34.5L139.7,34.5z"/>
		</g>
		<g>
			<defs>
				<rect id="SVGID_65_" x="0.6" width="204.9" height="45.9"/>
			</defs>
			<clipPath id="SVGID_66_">
				<use xlink:href="#SVGID_65_"  style="overflow:visible;"/>
			</clipPath>
			<path class="st32" d="M144.1,35.1c0.7-0.8,1.8-1.4,2.8-1.4c0.9,0,1.8,0.4,2,1.4c0.1,0.7-0.2,1.5-0.6,2.1
				c-0.6,0.8-1.8,1.4-2.8,1.4c-0.9,0-1.8-0.5-2-1.4C143.4,36.5,143.7,35.7,144.1,35.1L144.1,35.1z M144.2,37.1
				c0,0.8,0.6,1.3,1.4,1.3c0.9,0,1.7-0.6,2.1-1.3c0.4-0.6,0.7-1.5,0.5-2.2s-0.7-1-1.3-1c-0.9,0-1.7,0.5-2.2,1.2
				C144.4,35.7,144.1,36.5,144.2,37.1L144.2,37.1z"/>
		</g>
		<g>
			<defs>
				<rect id="SVGID_67_" x="0.6" width="204.9" height="45.9"/>
			</defs>
			<clipPath id="SVGID_68_">
				<use xlink:href="#SVGID_67_"  style="overflow:visible;"/>
			</clipPath>
			<path id="XMLID_7_" class="st33" d="M152,37.5l2.4-3.2c0.1-0.1,0.2-0.2,0.2-0.3c0.1,0,0.1-0.1,0.2-0.1h0.8c0.1,0,0.2,0,0.2,0.1
				s-0.2,0.1-0.3,0.1c-0.2,0-0.4,0.1-0.5,0.3l-1.1,3.5c0,0.1,0,0.2,0,0.3c0.1,0.2,0.2,0.1,0.3,0.1s0.2,0,0.1,0.1
				c0,0.1-0.1,0.1-0.2,0.1c-0.3,0-0.6-0.1-0.8-0.1s-0.5,0.1-0.7,0.1c-0.1,0-0.2,0-0.2-0.1s0.1-0.1,0.2-0.1c0.1,0,0.3,0,0.4-0.1
				c0.1,0,0.2-0.2,0.3-0.4l1.1-3.5h-0.1l-2.7,3.8c-0.1,0.2-0.3,0.3-0.3,0l-0.3-3.7h-0.1l-1.2,3.2c-0.1,0.2-0.2,0.6,0.2,0.6
				c0.1,0,0.2,0,0.3,0s0.1,0.1,0.1,0.1c0,0.1-0.1,0.1-0.2,0.1c-0.2,0-0.5-0.1-0.7-0.1s-0.4,0.1-0.6,0.1c-0.1,0-0.1,0-0.1-0.1
				s0.1-0.1,0.2-0.1c0.3,0,0.5-0.1,0.6-0.4l1.3-3.6c0.1-0.2-0.1-0.3-0.3-0.3c-0.1,0-0.2,0-0.2-0.1s0.2-0.1,0.2-0.1h0.8
				c0.2,0,0.2,0.2,0.2,0.3L152,37.5L152,37.5z"/>
		</g>
		<g>
			<defs>
				<rect id="SVGID_69_" x="0.6" width="204.9" height="45.9"/>
			</defs>
			<clipPath id="SVGID_70_">
				<use xlink:href="#SVGID_69_"  style="overflow:visible;"/>
			</clipPath>
			<path class="st34" d="M118.4,36.8C118.3,36.8,118.3,36.8,118.4,36.8c-0.1,0-0.2,0.1-0.3,0.3l-0.5,0.7c0,0.1-0.1,0.1-0.1,0.2
				c0,0.1,0,0.2,0.2,0.3c0.1,0,0.2,0,0.4,0c0,0,0,0,0,0.1s-0.1,0.1-0.2,0.1c-0.2,0-0.4-0.1-0.6-0.1c-0.3,0-0.5,0.1-0.8,0.1
				c-0.1,0-0.2,0-0.1-0.1c0-0.1,0.2-0.1,0.3-0.1c0.1,0,0.2,0,0.3-0.1c0.1,0,0.2-0.2,0.4-0.4l2.8-4c0.1-0.1,0.1-0.2,0.1-0.2h0.1v0.1
				l0.4,4c0,0.2,0,0.3,0.1,0.3s0.2,0.1,0.3,0.1c0.1,0,0.2,0.1,0.1,0.1c0,0-0.1,0.1-0.2,0.1h-1.8c-0.1,0-0.1,0-0.1-0.1
				c0,0,0-0.1,0.1-0.1s0.4,0,0.5,0s0.1-0.1,0.1-0.2c0-0.1,0-0.2,0-0.3l-0.1-0.8c0-0.1,0-0.1-0.1-0.2c0,0-0.1,0-0.2,0h-1.1V36.8z
				 M118.7,36.6h0.9c0.1,0,0.1,0,0.1,0c0.1,0,0.1,0,0.1-0.1c0,0,0-0.1,0-0.3l-0.1-1.1c0-0.2,0-0.3-0.1-0.3c0,0-0.1,0.1-0.2,0.2
				l-0.8,1.2c-0.1,0.1-0.1,0.2-0.1,0.2S118.5,36.5,118.7,36.6C118.6,36.6,118.7,36.6,118.7,36.6L118.7,36.6z"/>
		</g>
		<g>
			<defs>
				<rect id="SVGID_71_" x="0.6" width="204.9" height="45.9"/>
			</defs>
			<clipPath id="SVGID_72_">
				<use xlink:href="#SVGID_71_"  style="overflow:visible;"/>
			</clipPath>
			<path class="st35" d="M163.2,36.8c-0.1,0-0.1,0-0.1,0s-0.1,0.1-0.2,0.3l-0.5,0.7c0,0.1-0.1,0.1-0.1,0.2c0,0.1,0,0.2,0.2,0.3
				c0.1,0,0.2,0,0.4,0c0,0,0,0,0,0.1s-0.1,0.1-0.2,0.1c-0.2,0-0.4-0.1-0.6-0.1c-0.3,0-0.5,0.1-0.8,0.1c-0.1,0-0.2,0-0.1-0.1
				c0-0.1,0.2-0.1,0.3-0.1s0.2,0,0.3-0.1c0.1,0,0.2-0.2,0.4-0.4l2.8-4c0.1-0.1,0.1-0.2,0.1-0.2h0.1v0.1l0.4,4c0,0.2,0,0.3,0.1,0.3
				s0.2,0.1,0.3,0.1s0.2,0.1,0.1,0.1c0,0-0.1,0.1-0.2,0.1H164c-0.1,0-0.1,0-0.1-0.1c0,0,0-0.1,0.1-0.1s0.4,0,0.5,0s0.1-0.1,0.1-0.2
				c0-0.1,0-0.2,0-0.3l-0.1-0.8c0-0.1,0-0.1-0.1-0.2c0,0-0.1,0-0.2,0h-1V36.8z M163.5,36.6h0.9c0.1,0,0.1,0,0.1,0
				c0.1,0,0.1,0,0.1-0.1c0,0,0-0.1,0-0.3l-0.1-1.1c0-0.2,0-0.3-0.1-0.3c0,0-0.1,0.1-0.2,0.2l-0.8,1.2c-0.1,0.1-0.1,0.2-0.1,0.2
				s0,0.1,0.1,0.1C163.3,36.6,163.4,36.6,163.5,36.6L163.5,36.6z"/>
		</g>
		<g>
			<defs>
				<rect id="SVGID_73_" x="0.6" width="204.9" height="45.9"/>
			</defs>
			<clipPath id="SVGID_74_">
				<use xlink:href="#SVGID_73_"  style="overflow:visible;"/>
			</clipPath>
			<path id="XMLID_2_" class="st36" d="M173.8,34.5c0.1-0.2,0.1-0.3-0.2-0.4c-0.1,0-0.3,0-0.3-0.2c0,0,0.1-0.1,0.3-0.1s0.4,0,0.6,0
				c0.3,0,0.6,0,0.8,0s0.2,0,0.2,0.1S175,34,174.9,34c-0.2,0-0.5,0.1-0.6,0.4l-1.1,3.4l3.9-3.7c-0.1-0.1-0.3-0.1-0.4-0.1
				c-0.1,0-0.2-0.1-0.2-0.1s0.1-0.1,0.3-0.1h1.6c0.1,0,0.2,0,0.2,0.1s-0.1,0.1-0.2,0.1c-0.1,0-0.2,0-0.3,0c-0.2,0-0.4,0.1-0.4,0.3
				l-1.1,3.5c0,0.1,0,0.2,0,0.3c0.1,0.1,0.3,0.1,0.5,0.1c0.1,0,0.1,0,0.1,0.1s-0.1,0.1-0.3,0.1c-0.3,0-0.5-0.1-0.8-0.1
				s-0.6,0.1-0.8,0.1s-0.2,0-0.2-0.1s0.1-0.1,0.2-0.1c0.2,0,0.4,0,0.6-0.1c0,0,0.1-0.2,0.2-0.3c0-0.1,1.1-3.5,1.1-3.5l-3.9,3.7
				c-0.1,0.1-0.1,0.2,0.1,0.2c0,0,0.1,0,0.2,0c0.1,0,0.3-0.1,0.3,0.1c0,0.1-0.1,0.1-0.2,0.1c-0.3,0-0.6-0.1-0.8-0.1
				c-0.3,0-0.5,0.1-0.7,0.1c-0.1,0-0.2,0-0.2-0.1s0.1-0.1,0.2-0.1c0.3,0,0.4-0.1,0.5-0.4L173.8,34.5L173.8,34.5z"/>
		</g>
	</g>
</g>
</svg>
