<svg id="Слой_1" xmlns="http://www.w3.org/2000/svg" xmlns:xlink="http://www.w3.org/1999/xlink" viewBox="15.3 8.8 176 30"><style>.st0{clip-path:url(#SVGID_2_);fill:#fff}.st1{clip-path:url(#SVGID_4_);fill:#e11837}.st2{clip-path:url(#SVGID_6_)}.st2,.st3,.st4{fill:#e11837}.st3{clip-path:url(#SVGID_8_)}.st4{clip-path:url(#SVGID_10_)}.st5,.st6{clip-path:url(#SVGID_12_);fill:#034ea2}.st6{clip-path:url(#SVGID_14_)}.st7{clip-path:url(#SVGID_16_)}.st7,.st8,.st9{fill:#034ea2}.st8{clip-path:url(#SVGID_18_)}.st9{clip-path:url(#SVGID_20_)}.st10{clip-path:url(#SVGID_22_)}.st10,.st11,.st12{fill:#034ea2}.st11{clip-path:url(#SVGID_24_)}.st12{clip-path:url(#SVGID_26_)}.st13{clip-path:url(#SVGID_28_)}.st13,.st14,.st15{fill:#034ea2}.st14{clip-path:url(#SVGID_30_)}.st15{clip-path:url(#SVGID_32_)}.st16{clip-path:url(#SVGID_34_)}.st16,.st17,.st18{fill:#034ea2}.st17{clip-path:url(#SVGID_36_)}.st18{clip-path:url(#SVGID_38_)}.st19{clip-path:url(#SVGID_40_)}.st19,.st20,.st21{fill:#034ea2}.st20{clip-path:url(#SVGID_42_)}.st21{clip-path:url(#SVGID_44_)}.st22{clip-path:url(#SVGID_46_)}.st22,.st23,.st24{fill:#034ea2}.st23{clip-path:url(#SVGID_48_)}.st24{clip-path:url(#SVGID_50_)}.st25{clip-path:url(#SVGID_52_)}.st25,.st26,.st27{fill:#034ea2}.st26{clip-path:url(#SVGID_54_)}.st27{clip-path:url(#SVGID_56_)}.st28{clip-path:url(#SVGID_58_)}.st28,.st29,.st30{fill:#034ea2}.st29{clip-path:url(#SVGID_60_)}.st30{clip-path:url(#SVGID_62_)}.st31{clip-path:url(#SVGID_64_)}.st31,.st32,.st33{fill:#034ea2}.st32{clip-path:url(#SVGID_66_)}.st33{clip-path:url(#SVGID_68_)}.st34{clip-path:url(#SVGID_70_)}.st34,.st35,.st36{fill:#034ea2}.st35{clip-path:url(#SVGID_72_)}.st36{clip-path:url(#SVGID_74_)}</style><defs><path id="SVGID_1_" d="M.6 0h204.9v45.9H.6z"/></defs><clipPath id="SVGID_2_"><use xlink:href="#SVGID_1_" overflow="visible"/></clipPath><path id="XMLID_47_" class="st0" d="M.6 0h204.8v46H.6z"/><defs><path id="SVGID_3_" d="M.6 0h204.9v45.9H.6z"/></defs><clipPath id="SVGID_4_"><use xlink:href="#SVGID_3_" overflow="visible"/></clipPath><path id="XMLID_46_" class="st1" d="M35.5 30.4l2.7 1 2.7-8.7z"/><defs><path id="SVGID_5_" d="M.6 0h204.9v45.9H.6z"/></defs><clipPath id="SVGID_6_"><use xlink:href="#SVGID_5_" overflow="visible"/></clipPath><path id="XMLID_45_" class="st2" d="M31.4 29l.3.1L44.5 11l.4-1.2z"/><defs><path id="SVGID_7_" d="M.6 0h204.9v45.9H.6z"/></defs><clipPath id="SVGID_8_"><use xlink:href="#SVGID_7_" overflow="visible"/></clipPath><path id="XMLID_44_" class="st3" d="M32.6 29.4l.8.3 9.5-13.4.8-2.7z"/><defs><path id="SVGID_9_" d="M.6 0h204.9v45.9H.6z"/></defs><clipPath id="SVGID_10_"><use xlink:href="#SVGID_9_" overflow="visible"/></clipPath><path id="XMLID_43_" class="st4" d="M34 29.9l1.1.4 6.2-8.8 1-3.4z"/><defs><path id="SVGID_11_" d="M.6 0h204.9v45.9H.6z"/></defs><clipPath id="SVGID_12_"><use xlink:href="#SVGID_11_" overflow="visible"/></clipPath><path id="XMLID_42_" class="st5" d="M29.8 29l.6-.1L44.2 9.3l-1 .8z"/><defs><path id="SVGID_13_" d="M.6 0h204.9v45.9H.6z"/></defs><clipPath id="SVGID_14_"><use xlink:href="#SVGID_13_" overflow="visible"/></clipPath><path id="XMLID_41_" class="st6" d="M27.4 29.4l1.3-.2 12.2-17.4-2.3 1.8z"/><defs><path id="SVGID_15_" d="M.6 0h204.9v45.9H.6z"/></defs><clipPath id="SVGID_16_"><use xlink:href="#SVGID_15_" overflow="visible"/></clipPath><path id="XMLID_40_" class="st7" d="M25.1 29.8l1.5-.3 10.5-14.7-3 2.2z"/><defs><path id="SVGID_17_" d="M.6 0h204.9v45.9H.6z"/></defs><clipPath id="SVGID_18_"><use xlink:href="#SVGID_17_" overflow="visible"/></clipPath><path id="XMLID_39_" class="st8" d="M15.3 31.4l9.3-1.5 8.5-12.1z"/><defs><path id="SVGID_19_" d="M.6 0h204.9v45.9H.6z"/></defs><clipPath id="SVGID_20_"><use xlink:href="#SVGID_19_" overflow="visible"/></clipPath><path id="XMLID_38_" class="st9" d="M173.8 18.3c.5.8.6 2.7-.1 4h-4.6c.4-.9.6-2-.3-2h-2.2l-.6 2h-6.6l1.9-6h9.7c1.5.1 2.5 1.2 2.8 2z"/><defs><path id="SVGID_21_" d="M.6 0h204.9v45.9H.6z"/></defs><clipPath id="SVGID_22_"><use xlink:href="#SVGID_21_" overflow="visible"/></clipPath><path id="XMLID_37_" class="st10" d="M173.1 23.7c-.9 1.1-2.1 2-4.2 2H165l-1.4 4.5H157l2-6.5h14.1z"/><defs><path id="SVGID_23_" d="M.6 0h204.9v45.9H.6z"/></defs><clipPath id="SVGID_24_"><use xlink:href="#SVGID_23_" overflow="visible"/></clipPath><path id="XMLID_36_" class="st11" d="M140 16.3l.7 6.1h-11.1l4.3-6.1z"/><defs><path id="SVGID_25_" d="M.6 0h204.9v45.9H.6z"/></defs><clipPath id="SVGID_26_"><use xlink:href="#SVGID_25_" overflow="visible"/></clipPath><path id="XMLID_35_" class="st12" d="M140.8 23.7l.7 6.5h-5.6l-.3-2.3H131l-1.7 2.3h-5.2l4.6-6.5h5.3l-.8 1h2.1l-.1-1z"/><defs><path id="SVGID_27_" d="M.6 0h204.9v45.9H.6z"/></defs><clipPath id="SVGID_28_"><use xlink:href="#SVGID_27_" overflow="visible"/></clipPath><path class="st13" d="M48.3 16.3h13.4l-1.3 4.1H57l-.6 1.9h-6.6l.6-1.9H47l1.3-4.1zm7.8 7.4l-2 6.5h-6.6l2-6.5h6.6z"/><defs><path id="SVGID_29_" d="M.6 0h204.9v45.9H.6z"/></defs><clipPath id="SVGID_30_"><use xlink:href="#SVGID_29_" overflow="visible"/></clipPath><path id="XMLID_32_" class="st14" d="M157.5 22.4h-11.8l.2-.7h4.5c-.3-.6-3.2-1.2-5-.6l1.5-4.8c4.9-1.5 13.1-1.4 10.6 6.1z"/><defs><path id="SVGID_31_" d="M.6 0h204.9v45.9H.6z"/></defs><clipPath id="SVGID_32_"><use xlink:href="#SVGID_31_" overflow="visible"/></clipPath><path id="XMLID_31_" class="st15" d="M157 23.7c-2.6 7.6-9.6 8-14.2 5.8l1.5-4.6c1.4.6 5.2.6 5.4-.5h-4.6l.2-.7H157z"/><defs><path id="SVGID_33_" d="M.6 0h204.9v45.9H.6z"/></defs><clipPath id="SVGID_34_"><use xlink:href="#SVGID_33_" overflow="visible"/></clipPath><path id="XMLID_30_" class="st16" d="M127.1 16.5l-1.4 4.5c-2.3-.5-5.9-.3-7.1 1.3h-6.2c.6-1.7 2.1-3.6 3.6-4.7 2.4-2 8.2-2.7 11.1-1.1z"/><defs><path id="SVGID_35_" d="M.6 0h204.9v45.9H.6z"/></defs><clipPath id="SVGID_36_"><use xlink:href="#SVGID_35_" overflow="visible"/></clipPath><path id="XMLID_29_" class="st17" d="M118 23.7c-.1.7.3 1.2.9 1.4 1.1.4 4.6.3 5.5-.2l-1.5 4.6c-1.9.7-7 2.5-9.8-.5-1.2-1.4-1.9-3.1-1.3-5.3h6.2z"/><defs><path id="SVGID_37_" d="M.6 0h204.9v45.9H.6z"/></defs><clipPath id="SVGID_38_"><use xlink:href="#SVGID_37_" overflow="visible"/></clipPath><path id="XMLID_28_" class="st18" d="M112.5 16.3l-1.9 6.1H94.7l1.9-6.1h6.6l-1.6 5.3h2.6l1.7-5.3z"/><defs><path id="SVGID_39_" d="M.6 0h204.9v45.9H.6z"/></defs><clipPath id="SVGID_40_"><use xlink:href="#SVGID_39_" overflow="visible"/></clipPath><path id="XMLID_27_" class="st19" d="M110.2 23.7l-2 6.5h-6.6l1.8-5.8h-2.7l-1.8 5.8h-6.6l2-6.5z"/><defs><path id="SVGID_41_" d="M.6 0h204.9v45.9H.6z"/></defs><clipPath id="SVGID_42_"><use xlink:href="#SVGID_41_" overflow="visible"/></clipPath><path id="XMLID_26_" class="st20" d="M89.9 16.3l.7 6.1h-11l4.2-6.1z"/><defs><path id="SVGID_43_" d="M.6 0h204.9v45.9H.6z"/></defs><clipPath id="SVGID_44_"><use xlink:href="#SVGID_43_" overflow="visible"/></clipPath><path id="XMLID_25_" class="st21" d="M90.8 23.7l.7 6.5h-5.7l-.2-2.3h-4.7l-1.6 2.3H74l4.6-6.5h5.3l-.7 1h2l-.1-1z"/><defs><path id="SVGID_45_" d="M.6 0h204.9v45.9H.6z"/></defs><clipPath id="SVGID_46_"><use xlink:href="#SVGID_45_" overflow="visible"/></clipPath><path id="XMLID_24_" class="st22" d="M76.5 18.3c.5.8.6 2.7-.1 4h-4.6c.4-.9.6-2-.3-2h-2.2l-.6 2h-6.6l1.9-6h9.7c1.4.1 2.5 1.2 2.8 2z"/><defs><path id="SVGID_47_" d="M.6 0h204.9v45.9H.6z"/></defs><clipPath id="SVGID_48_"><use xlink:href="#SVGID_47_" overflow="visible"/></clipPath><path id="XMLID_23_" class="st23" d="M75.8 23.7c-.9 1.1-2.1 2-4.2 2h-3.9l-1.4 4.5h-6.6l2-6.5h14.1z"/><defs><path id="SVGID_49_" d="M.6 0h204.9v45.9H.6z"/></defs><clipPath id="SVGID_50_"><use xlink:href="#SVGID_49_" overflow="visible"/></clipPath><path class="st24" d="M180.6 30.8c-4.2 0-6.7-3.2-5.7-7.2h5.5c-.1 1.1.6 1.9 1.9 1.9 1.2 0 2.5-.8 3.1-1.9h5.5c-1.6 4.1-6.1 7.2-10.3 7.2zm-5.3-8.4c1.6-3.8 6-6.8 10.1-6.8s6.5 3 5.8 6.8h-5.6c-.1-.9-.8-1.6-1.9-1.6-1.1 0-2.2.7-2.9 1.6h-5.5z"/><defs><path id="SVGID_51_" d="M.6 0h204.9v45.9H.6z"/></defs><clipPath id="SVGID_52_"><use xlink:href="#SVGID_51_" overflow="visible"/></clipPath><path class="st25" d="M125.1 35.9c.7.1 1.2.6.9 1.3-.3.8-1.2 1.2-2 1.2h-.6c-.5 0-1-.1-1.5-.1h-.4c-.1 0-.1 0-.1-.1s.4-.1.5-.1.1 0 .1-.1c.1-.1.2-.2.2-.3l1.1-3.5c.1-.2 0-.4-.2-.4h-.4c0-.1.2-.1.5-.2h1.7c.5 0 1.2.1 1.4.6.2.4 0 .7-.2 1-.1.4-.6.7-1 .7zm-1.1-1.4l-.4 1.2c-.1.2-.1.3.1.3h.6c.2 0 .4-.1.6-.1.3-.2.7-.5.8-.9.1-.2.1-.4 0-.6-.1-.4-.7-.5-1-.5-.2 0-.5 0-.6.2 0 .1 0 .2-.1.4zm-1 3.3c-.1.2-.1.5.2.5.3.1.7.1 1.1 0 .5-.1.9-.6 1.1-1.1s0-.9-.5-1.1c-.2 0-.4-.1-.7-.1h-.5c-.1 0-.3.1-.3.3l-.4 1.5z"/><defs><path id="SVGID_53_" d="M.6 0h204.9v45.9H.6z"/></defs><clipPath id="SVGID_54_"><use xlink:href="#SVGID_53_" overflow="visible"/></clipPath><path id="XMLID_17_" class="st26" d="M157.4 34.6c.1-.3.1-.3-.3-.4-.1 0-.2-.1-.1-.2 0-.1.1-.1.2-.1h4.6c.1 0 .2 0 .2.1s-.1.1-.2.1-.3 0-.5.1c-.1.1-.1.2-.2.3l-1 3.3c-.1.2-.1.4.2.4h.2c.1 0 .1 0 .1.1s-.1.1-.2.1c-.3 0-.4-.1-.8-.1-.3 0-.5.1-.8.1-.2 0-.2 0-.2-.1s.1-.1.2-.1h.3c.3 0 .4-.3.4-.5l1.1-3.6h-2.5l-1.1 3.6c-.1.2-.1.4 0 .4h.4c.1 0 .1 0 .1.1s-.1.1-.2.1c-.3 0-.5-.1-.8-.1-.4 0-.5 0-.9.1-.1 0-.2 0-.2-.1s.1-.1.2-.1h.3c.2 0 .3-.2.4-.4l1.1-3.1z"/><defs><path id="SVGID_55_" d="M.6 0h204.9v45.9H.6z"/></defs><clipPath id="SVGID_56_"><use xlink:href="#SVGID_55_" overflow="visible"/></clipPath><path class="st27" d="M180.3 36.2c-.2 0-.3.2-.4.3l-1.3 1.5c-.2.2-.3.3-.6.3-.1 0-.2 0-.2.1s0 .1.1.1h.8c.2 0 .3-.3.4-.4l1.4-1.7c.1-.1.3-.2.6-.2h.2c.1 0 .1.1.1.2l-.5 1.5c0 .1-.1.2-.2.3-.1.1-.3 0-.4 0-.1 0-.2 0-.2.1s0 .1.1.1c.3 0 .5-.1.8-.1s.5.1.8.1c.1 0 .2 0 .2-.1s0-.1-.1-.1h-.1c-.3 0-.3-.2-.3-.4l1.1-3.5c.1-.4.2-.4.5-.4h.2s.1 0 .1-.1 0-.1-.1-.1h-1.7c-.3 0-.7 0-1.1.1-.4.2-.9.6-1 1-.1.2 0 .5.1.7.1.5.3.7.7.7zm1.6-1.7l-.5 1.5c0 .1-.1.1-.3.1-.3 0-.6 0-.8-.1s-.2-.2-.3-.4v-.5c.1-.3.2-.5.5-.7s.6-.3.9-.3h.4c.2 0 .1.2.1.4z"/><defs><path id="SVGID_57_" d="M.6 0h204.9v45.9H.6z"/></defs><clipPath id="SVGID_58_"><use xlink:href="#SVGID_57_" overflow="visible"/></clipPath><path id="XMLID_14_" class="st28" d="M168 34.4c.1-.2-.1-.3-.3-.3-.1 0-.3 0-.3-.1s.2-.1.3-.1h1.5c.2 0 .2 0 .2.1s-.2.1-.2.1c-.1 0-.3 0-.4.1-.1.1-.2.2-.2.3l-.4 1.2c-.1.2-.1.3.1.3h2.2c.2 0 .2-.1.2-.3l.4-1.2v-.2c-.1 0-.2-.1-.3-.1s-.2 0-.2-.1.1-.1.3-.1h1.5c.1 0 .2 0 .1.1 0 .1 0 .1-.1.1h-.3c-.2 0-.3.1-.4.3l-1.1 3.5c-.1.3 0 .3.2.4h.2c.1 0 .1 0 .1.1s-.1.1-.3.1c-.3 0-.5-.1-.8-.1s-.5.1-.8.1c-.1 0-.2 0-.2-.1s.1-.1.2-.1h.3c.2 0 .3-.2.4-.4l.5-1.6c0-.1-.1-.2-.2-.2h-2.1c-.2 0-.3 0-.3.2l-.5 1.6c-.1.2-.1.3.1.4h.2c.1 0 .3 0 .2.1 0 .1-.1.1-.2.1-.3 0-.6-.1-.8-.1-.3 0-.5.1-.8.1-.1 0-.2 0-.2-.1s.1-.1.2-.1h.3c.1 0 .3-.2.3-.3l1.4-3.7z"/><defs><path id="SVGID_59_" d="M.6 0h204.9v45.9H.6z"/></defs><clipPath id="SVGID_60_"><use xlink:href="#SVGID_59_" overflow="visible"/></clipPath><path id="XMLID_13_" class="st29" d="M128.4 34.5c.1-.2.1-.3-.2-.4-.1 0-.3 0-.3-.2 0 0 .1-.1.3-.1h1.4c.2 0 .2 0 .2.1s-.2.1-.3.1c-.2 0-.5.1-.6.4l-1.1 3.4 3.9-3.7c-.1-.1-.3-.1-.4-.1-.1 0-.2-.1-.2-.1s.1-.1.3-.1h1.6c.1 0 .2 0 .2.1s-.1.1-.2.1h-.3c-.2 0-.4.1-.4.3l-1.1 3.5v.3c.1.1.3.1.5.1.1 0 .1 0 .1.1s-.1.1-.3.1c-.3 0-.5-.1-.8-.1s-.6.1-.8.1-.2 0-.2-.1.1-.1.2-.1c.2 0 .4 0 .6-.1 0 0 .1-.2.2-.3 0-.1 1.1-3.5 1.1-3.5l-3.9 3.7c-.1.1-.1.2.1.2h.2c.1 0 .3-.1.3.1 0 .1-.1.1-.2.1-.3 0-.6-.1-.8-.1-.3 0-.5.1-.7.1-.1 0-.2 0-.2-.1s.1-.1.2-.1c.3 0 .4-.1.5-.4l1.1-3.3z"/><defs><path id="SVGID_61_" d="M.6 0h204.9v45.9H.6z"/></defs><clipPath id="SVGID_62_"><use xlink:href="#SVGID_61_" overflow="visible"/></clipPath><path class="st30" d="M134.5 36.8h-.1s-.1.1-.2.3l-.5.7c0 .1-.1.1-.1.2s0 .2.2.3h.4v.1c0 .1-.1.1-.2.1-.2 0-.4-.1-.6-.1-.3 0-.5.1-.8.1-.1 0-.2 0-.1-.1 0-.1.2-.1.3-.1s.2 0 .3-.1c.1 0 .2-.2.4-.4l2.8-4c.1-.1.1-.2.1-.2h.1v.1l.4 4c0 .2 0 .3.1.3s.2.1.3.1.2.1.1.1c0 0-.1.1-.2.1h-1.8c-.1 0-.1 0-.1-.1 0 0 0-.1.1-.1h.5c.1 0 .1-.1.1-.2V37c0-.1 0-.1-.1-.2h-1.4zm.3-.2h1c.1 0 .1 0 .1-.1v-.3l-.1-1.1c0-.2 0-.3-.1-.3l-.2.2-.8 1.2c-.1.1-.1.2-.1.2s0 .1.1.1c0 .1.1.1.1.1z"/><defs><path id="SVGID_63_" d="M.6 0h204.9v45.9H.6z"/></defs><clipPath id="SVGID_64_"><use xlink:href="#SVGID_63_" overflow="visible"/></clipPath><path id="XMLID_10_" class="st31" d="M139.7 34.5v-.3c-.1-.1-.3-.1-.4-.1-.1 0-.1-.1-.1-.1s.1-.1.2-.1h1.7c.1 0 .2 0 .1.1 0 0 0 .1-.1.1-.2 0-.3 0-.5.1-.1 0-.2.1-.2.3l-.5 1.6v.1c.1 0 .1-.1.2-.1l1.9-1.5.3-.3v-.1h-.2c-.1 0-.2 0-.2-.1s.1-.1.2-.1h1.5c.1 0 .1 0 .1.1s-.1.1-.1.1h-.5c-.2 0-.5.2-.8.4l-1.3 1c-.1.1-.2.1-.2.2 0 0 0 .1.1.2l1.1 2.1c.1.2.3.4.6.4 0 0 .1 0 .1.1s-.1.1-.2.1c-.3 0-.6-.1-.9-.1-.3 0-.6.1-.9.1-.1 0-.1 0-.1-.1 0 0 0-.1.1-.1.2 0 .3 0 .5-.1s.2-.2.1-.4l-.7-1.5c-.1-.1-.1-.2-.1-.2s-.1-.1-.1 0l-.5.3v.1l-.4 1.4c0 .1 0 .2.1.3s.3 0 .4.1c.1 0 .1 0 .1.1s-.1.1-.3.1c-.3 0-.5-.1-.8-.1s-.5.1-.7.1c-.1 0-.2 0-.2-.1s.2-.1.3-.1.3 0 .4-.1c.1-.1.1-.2.2-.3l.7-3.6z"/><defs><path id="SVGID_65_" d="M.6 0h204.9v45.9H.6z"/></defs><clipPath id="SVGID_66_"><use xlink:href="#SVGID_65_" overflow="visible"/></clipPath><path class="st32" d="M144.1 35.1c.7-.8 1.8-1.4 2.8-1.4.9 0 1.8.4 2 1.4.1.7-.2 1.5-.6 2.1-.6.8-1.8 1.4-2.8 1.4-.9 0-1.8-.5-2-1.4-.1-.7.2-1.5.6-2.1zm.1 2c0 .8.6 1.3 1.4 1.3.9 0 1.7-.6 2.1-1.3.4-.6.7-1.5.5-2.2s-.7-1-1.3-1c-.9 0-1.7.5-2.2 1.2-.3.6-.6 1.4-.5 2z"/><defs><path id="SVGID_67_" d="M.6 0h204.9v45.9H.6z"/></defs><clipPath id="SVGID_68_"><use xlink:href="#SVGID_67_" overflow="visible"/></clipPath><path id="XMLID_7_" class="st33" d="M152 37.5l2.4-3.2c.1-.1.2-.2.2-.3.1 0 .1-.1.2-.1h.8c.1 0 .2 0 .2.1s-.2.1-.3.1c-.2 0-.4.1-.5.3l-1.1 3.5v.3c.1.2.2.1.3.1s.2 0 .1.1c0 .1-.1.1-.2.1-.3 0-.6-.1-.8-.1s-.5.1-.7.1c-.1 0-.2 0-.2-.1s.1-.1.2-.1.3 0 .4-.1c.1 0 .2-.2.3-.4l1.1-3.5h-.1l-2.7 3.8c-.1.2-.3.3-.3 0l-.3-3.7h-.1l-1.2 3.2c-.1.2-.2.6.2.6h.3c.1 0 .1.1.1.1 0 .1-.1.1-.2.1-.2 0-.5-.1-.7-.1s-.4.1-.6.1c-.1 0-.1 0-.1-.1s.1-.1.2-.1c.3 0 .5-.1.6-.4l1.3-3.6c.1-.2-.1-.3-.3-.3-.1 0-.2 0-.2-.1s.2-.1.2-.1h.8c.2 0 .2.2.2.3l.5 3.5z"/><defs><path id="SVGID_69_" d="M.6 0h204.9v45.9H.6z"/></defs><clipPath id="SVGID_70_"><use xlink:href="#SVGID_69_" overflow="visible"/></clipPath><path class="st34" d="M118.4 36.8c-.1 0-.1 0 0 0-.1 0-.2.1-.3.3l-.5.7c0 .1-.1.1-.1.2s0 .2.2.3h.4v.1c0 .1-.1.1-.2.1-.2 0-.4-.1-.6-.1-.3 0-.5.1-.8.1-.1 0-.2 0-.1-.1 0-.1.2-.1.3-.1.1 0 .2 0 .3-.1.1 0 .2-.2.4-.4l2.8-4c.1-.1.1-.2.1-.2h.1v.1l.4 4c0 .2 0 .3.1.3s.2.1.3.1c.1 0 .2.1.1.1 0 0-.1.1-.2.1h-1.8c-.1 0-.1 0-.1-.1 0 0 0-.1.1-.1h.5c.1 0 .1-.1.1-.2v-.3l-.1-.8c0-.1 0-.1-.1-.2h-1.3v.2zm.3-.2h1c.1 0 .1 0 .1-.1v-.3l-.1-1.1c0-.2 0-.3-.1-.3l-.2.2-.8 1.2c-.1.1-.1.2-.1.2s0 .1.2.2c-.1 0 0 0 0 0z"/><defs><path id="SVGID_71_" d="M.6 0h204.9v45.9H.6z"/></defs><clipPath id="SVGID_72_"><use xlink:href="#SVGID_71_" overflow="visible"/></clipPath><path class="st35" d="M163.2 36.8h-.1s-.1.1-.2.3l-.5.7c0 .1-.1.1-.1.2s0 .2.2.3h.4v.1c0 .1-.1.1-.2.1-.2 0-.4-.1-.6-.1-.3 0-.5.1-.8.1-.1 0-.2 0-.1-.1 0-.1.2-.1.3-.1s.2 0 .3-.1c.1 0 .2-.2.4-.4l2.8-4c.1-.1.1-.2.1-.2h.1v.1l.4 4c0 .2 0 .3.1.3s.2.1.3.1.2.1.1.1c0 0-.1.1-.2.1H164c-.1 0-.1 0-.1-.1 0 0 0-.1.1-.1h.5c.1 0 .1-.1.1-.2v-.3l-.1-.8c0-.1 0-.1-.1-.2h-1.2v.2zm.3-.2h1c.1 0 .1 0 .1-.1v-.3l-.1-1.1c0-.2 0-.3-.1-.3l-.2.2-.8 1.2c-.1.1-.1.2-.1.2s0 .1.1.1c-.1.1 0 .1.1.1z"/><defs><path id="SVGID_73_" d="M.6 0h204.9v45.9H.6z"/></defs><clipPath id="SVGID_74_"><use xlink:href="#SVGID_73_" overflow="visible"/></clipPath><path id="XMLID_2_" class="st36" d="M173.8 34.5c.1-.2.1-.3-.2-.4-.1 0-.3 0-.3-.2 0 0 .1-.1.3-.1h1.4c.2 0 .2 0 .2.1s-.2.1-.3.1c-.2 0-.5.1-.6.4l-1.1 3.4 3.9-3.7c-.1-.1-.3-.1-.4-.1-.1 0-.2-.1-.2-.1s.1-.1.3-.1h1.6c.1 0 .2 0 .2.1s-.1.1-.2.1h-.3c-.2 0-.4.1-.4.3l-1.1 3.5v.3c.1.1.3.1.5.1.1 0 .1 0 .1.1s-.1.1-.3.1c-.3 0-.5-.1-.8-.1s-.6.1-.8.1-.2 0-.2-.1.1-.1.2-.1c.2 0 .4 0 .6-.1 0 0 .1-.2.2-.3 0-.1 1.1-3.5 1.1-3.5l-3.9 3.7c-.1.1-.1.2.1.2h.2c.1 0 .3-.1.3.1 0 .1-.1.1-.2.1-.3 0-.6-.1-.8-.1-.3 0-.5.1-.7.1-.1 0-.2 0-.2-.1s.1-.1.2-.1c.3 0 .4-.1.5-.4l1.1-3.3z"/></svg>